<svg aria-hidden="true" style="position:absolute;width:0;height:0" xmlns="http://www.w3.org/2000/svg" overflow="hidden"><defs><symbol id="icon-arrow-right" viewBox="0 0 32 32"><path d="M19.414 27.414l10-10a2 2 0 000-2.828l-10-10a2 2 0 10-2.828 2.828L23.172 14H4a2 2 0 100 4h19.172l-6.586 6.586c-.39.39-.586.902-.586 1.414s.195 1.024.586 1.414a2 2 0 002.828 0z"/></symbol><symbol id="icon-facebook" viewBox="0 0 16 32"><path d="M14.143 15.972h-4.034v14.865H3.997V15.972H1.09v-5.224h2.907V7.367c0-2.418 1.142-6.203 6.166-6.203l4.527.019v5.071h-3.285c-.539 0-1.296.271-1.296 1.424v3.075h4.567l-.534 5.219z"/></symbol><symbol id="icon-telegram" viewBox="0 0 44 32"><path d="M17.343 21.048l-.675 8.86c.966 0 1.384-.387 1.885-.852l4.527-4.038 9.381 6.412c1.72.895 2.933.424 3.397-1.477l6.157-26.929.002-.002c.546-2.374-.92-3.302-2.596-2.72L3.227 13.235c-2.47.895-2.433 2.18-.42 2.762l9.253 2.686L33.554 6.131c1.011-.625 1.931-.279 1.175.346l-17.386 14.57z"/></symbol><symbol id="icon-github" viewBox="0 0 32 32"><path d="M16 0C7.212 0 0 7.212 0 16c0 7.499 5.262 14.312 12.25 16v-5.293c-.692.152-1.33.156-2.034-.052-.946-.279-1.714-.909-2.284-1.869-.364-.613-1.008-1.278-1.68-1.23l-.165-1.868c1.453-.124 2.711.886 3.457 2.14.332.558.713.884 1.203 1.029.473.14.982.072 1.574-.137.149-1.186.692-1.63 1.102-2.255v-.001c-4.167-.622-5.828-2.832-6.488-4.578-.874-2.317-.405-5.212 1.14-7.041.03-.036.084-.129.063-.194-.708-2.139.155-3.909.187-4.097.817.242.95-.243 3.551 1.337l.449.27c.188.112.129.048.317.034A13.544 13.544 0 0116 7.723c1.136.015 2.273.178 3.404.484l.145.015c-.013-.002.04-.009.127-.062 3.248-1.968 3.132-1.324 4.003-1.608.032.188.883 1.987.182 4.099-.095.291 2.816 2.956 1.203 7.235-.659 1.746-2.32 3.957-6.487 4.578v.001c.534.814 1.176 1.247 1.173 2.927V32C26.738 30.312 32 23.499 32 16c0-8.788-7.212-16-16-16z"/></symbol><symbol id="icon-close" viewBox="0 0 32 32"><path d="M17.768 16L31.634 2.134A1.25 1.25 0 0029.866.366L16 14.232 2.134.366A1.25 1.25 0 00.366 2.134L14.232 16 .366 29.866a1.25 1.25 0 001.768 1.768L16 17.768l13.866 13.866c.244.244.564.366.884.366s.64-.122.884-.366a1.25 1.25 0 000-1.768L17.768 16z"/></symbol><symbol id="icon-burgher" viewBox="0 0 32 32"><path d="M30.75 14.75H1.25a1.25 1.25 0 000 2.5h29.5a1.25 1.25 0 000-2.5zM30.75 4.75H1.25a1.25 1.25 0 000 2.5h29.5a1.25 1.25 0 000-2.5zM30.75 24.75H1.25a1.25 1.25 0 000 2.5h29.5a1.25 1.25 0 000-2.5z"/></symbol><symbol id="icon-arrow-button" viewBox="0 0 32 32"><path d="M24.889 14.751L10.649.511C10.32.181 9.88 0 9.411 0s-.908.182-1.238.511L7.124 1.559a1.754 1.754 0 000 2.476l11.958 11.958L7.111 27.964c-.329.33-.511.769-.511 1.238s.182.908.511 1.238l1.049 1.048c.33.33.769.511 1.238.511s.908-.182 1.238-.511L24.89 17.235c.33-.331.511-.772.51-1.242a1.742 1.742 0 00-.51-1.243z"/></symbol><symbol id="icon-home" viewBox="0 0 35 32"><path d="M34.253 15.613a1.576 1.576 0 00-.129-2.255L19.352.432c-.671-.586-1.745-.574-2.402.028L2.128 14.047a1.567 1.567 0 00-.071 2.252l.372.387c.617.642 1.613.718 2.224.17l1.108-.992v14.523c0 .891.722 1.613 1.612 1.613h5.778c.89 0 1.612-.721 1.612-1.613v-10.16h7.37v10.16c-.013.89.624 1.612 1.515 1.612h6.123c.89 0 1.613-.722 1.613-1.613V16.068l.683.6c.377.332 1.168.066 1.767-.594l.42-.462z"/></symbol><symbol id="icon-red-dots" viewBox="0 0 256 32"><path d="M144 16c0 8.837-7.163 16-16 16s-16-7.163-16-16 7.163-16 16-16 16 7.163 16 16zM32 16c0 8.837-7.163 16-16 16S0 24.837 0 16 7.163 0 16 0s16 7.163 16 16zM256 16c0 8.837-7.163 16-16 16s-16-7.163-16-16 7.163-16 16-16 16 7.163 16 16z"/></symbol><symbol id="icon-white-dots" viewBox="0 0 139 32"><path d="M85.333 16c0 8.837-7.163 16-16 16s-16-7.163-16-16 7.163-16 16-16 16 7.163 16 16zM32 16c0 8.837-7.163 16-16 16S0 24.837 0 16 7.163 0 16 0s16 7.163 16 16zM138.667 16c0 8.837-7.163 16-16 16s-16-7.163-16-16 7.163-16 16-16 16 7.163 16 16z"/></symbol><symbol id="icon-grey-dot" viewBox="0 0 32 32"><path d="M32 16c0 8.837-7.163 16-16 16S0 24.837 0 16 7.163 0 16 0s16 7.163 16 16z"/></symbol><symbol id="icon-border" viewBox="0 0 2864 32"><path stroke-width="16" d="M0 16h2864"/></symbol><symbol id="icon-milk-box" viewBox="0 0 32 32"><path fill="var(--color1, #fff)" d="M11.854 8.399V4.364h-5.82v4.04c0 .838-.271 1.653-.773 2.324l-1.356 1.813a3.879 3.879 0 00-.773 2.324v13.901c0 .714.579 1.293 1.293 1.293h9.053c.714 0 1.293-.579 1.293-1.293V14.87c0-.841-.273-1.66-.779-2.332l-1.36-1.808a3.877 3.877 0 01-.779-2.332z"/><path fill="var(--color2, #b6e6fa)" d="M13.992 12.539l-1.36-1.808a3.877 3.877 0 01-.779-2.332V4.364H10.56v4.035c0 .841.273 1.66.779 2.332l1.36 1.808c.506.672.779 1.491.779 2.332v13.896c0 .714-.579 1.293-1.293 1.293h1.293c.714 0 1.293-.579 1.293-1.293V14.871c0-.841-.273-1.66-.779-2.332z"/><path fill="var(--color1, #fff)" d="M25.942 8.399V4.364h-5.82v4.04c0 .838-.271 1.653-.773 2.324l-1.356 1.813a3.879 3.879 0 00-.773 2.324v13.901c0 .714.579 1.293 1.293 1.293h9.053c.714 0 1.293-.579 1.293-1.293V14.87c0-.841-.273-1.66-.779-2.332l-1.36-1.808a3.877 3.877 0 01-.779-2.332z"/><path fill="var(--color2, #b6e6fa)" d="M28.081 12.539l-1.36-1.808a3.877 3.877 0 01-.779-2.332V4.364h-1.293v4.035c0 .841.273 1.66.779 2.332l1.36 1.808c.506.672.779 1.491.779 2.332v13.896c0 .714-.579 1.293-1.293 1.293h1.293c.714 0 1.293-.579 1.293-1.293V14.871c0-.841-.273-1.66-.779-2.332zM12.832 4.365h-7.76V2.583c0-.357.29-.647.647-.647h6.466c.357 0 .647.29.647.647z"/><path fill="var(--color3, #54c9f3)" d="M12.185 1.936h-1.293c.357 0 .647.29.647.647v1.782h1.293V2.583a.647.647 0 00-.647-.647z"/><path fill="var(--color2, #b6e6fa)" d="M26.92 4.365h-7.76V2.583c0-.357.29-.647.647-.647h6.466c.357 0 .647.29.647.647z"/><path fill="var(--color3, #54c9f3)" d="M26.273 1.936H24.98c.357 0 .647.29.647.647v1.782h1.293V2.583a.647.647 0 00-.647-.647z"/><path fill="var(--color4, #dfba7f)" d="M.485 16.485h31.03v5.496H.485z"/><path fill="var(--color5, #f69500)" d="M30.222 16.485v4.203H.485v1.293h31.03v-5.496z"/><path fill="var(--color4, #dfba7f)" d="M.485 24.568h31.03v5.496H.485z"/><path fill="var(--color5, #f69500)" d="M30.222 24.568v4.203H.485v1.293h31.03v-5.496z"/><path fill="var(--color6, #000)" d="M32 22.466V16h-2.655v-1.129a4.39 4.39 0 00-.876-2.623l-1.36-1.808a3.414 3.414 0 01-.682-2.04V4.85h.978V2.583c0-.624-.508-1.132-1.132-1.132h-6.466c-.624 0-1.132.508-1.132 1.132V4.85h.962v3.555c0 .728-.24 1.45-.676 2.033l-1.356 1.813a4.39 4.39 0 00-.869 2.614v1.134h-1.479V14.87a4.39 4.39 0 00-.876-2.623l-1.36-1.808a3.414 3.414 0 01-.682-2.04v-3.55h.978V2.582c0-.624-.508-1.132-1.132-1.132H8.269v.97h3.916c.089 0 .162.073.162.162v1.297h-6.79V2.582c0-.089.072-.162.162-.162h1.58v-.97h-1.58c-.624 0-1.132.508-1.132 1.132v2.267h.962v3.555c0 .728-.24 1.45-.676 2.033L3.517 12.25a4.39 4.39 0 00-.869 2.614v1.134H.001v6.466h2.647v1.617H.001v6.466h32v-6.466h-2.655v-1.617zM19.645 2.583c0-.089.073-.162.162-.162h6.466c.089 0 .162.073.162.162V3.88h-6.79zm5.812 2.267v1.455h-4.85V4.85zm-18.938 0h4.85v1.455h-4.85zM3.617 14.866c0-.728.24-1.45.676-2.033l1.356-1.813a4.39 4.39 0 00.869-2.614v-1.13h4.85v1.125c0 .94.311 1.872.876 2.623l1.36 1.808c.44.585.682 1.309.682 2.04v1.129H3.617zM31.03 25.053v4.526H.97v-4.526h10.184v-.97H3.617v-1.617h10.669v1.617h-2.17v.97zm-15.774-.97v-1.617h1.479v1.617zm2.45 0v-1.617h10.669v1.617zM.97 21.496V16.97h20.846V16h-4.11v-1.134c0-.728.24-1.45.676-2.033l1.356-1.813a4.39 4.39 0 00.869-2.614v-1.13h4.85v1.125c0 .94.311 1.872.876 2.623l1.36 1.808c.44.585.682 1.309.682 2.04v1.129h-5.589v.97h8.245v4.526z"/><path fill="var(--color6, #000)" d="M2.891 18.888h.948v.97h-.948zM2.891 26.669h.948v.97h-.948zM28.174 18.888h.948v.97h-.948zM28.174 26.669h.948v.97h-.948z"/><path fill="var(--color1, #fff)" d="M23.842 28.609h-.97v-.97h.97zm-1.94 0h-.97v-.97h.97zm-1.94 0h-.97v-.97h.97z"/></symbol><symbol id="icon-three_dots" viewBox="0 0 256 32"><path d="M144 16c0 8.837-7.163 16-16 16s-16-7.163-16-16 7.163-16 16-16 16 7.163 16 16zM32 16c0 8.837-7.163 16-16 16S0 24.837 0 16 7.163 0 16 0s16 7.163 16 16zM256 16c0 8.837-7.163 16-16 16s-16-7.163-16-16 7.163-16 16-16 16 7.163 16 16z"/></symbol></defs></svg>