<svg aria-hidden="true" style="position: absolute; width: 0; height: 0; overflow: hidden;" version="1.1" xmlns="http://www.w3.org/2000/svg" xmlns:xlink="http://www.w3.org/1999/xlink">
<defs>
<symbol id="icon-arrow-right" viewBox="0 0 32 32">
<path d="M19.414 27.414l10-10c0.781-0.781 0.781-2.047 0-2.828l-10-10c-0.781-0.781-2.047-0.781-2.828 0s-0.781 2.047 0 2.828l6.586 6.586h-19.172c-1.105 0-2 0.895-2 2s0.895 2 2 2h19.172l-6.586 6.586c-0.39 0.39-0.586 0.902-0.586 1.414s0.195 1.024 0.586 1.414c0.781 0.781 2.047 0.781 2.828 0z"></path>
</symbol>
<symbol id="icon-facebook" viewBox="0 0 16 32">
<path d="M14.143 15.972h-4.034v14.865h-6.112v-14.865h-2.907v-5.224h2.907v-3.381c0-2.418 1.142-6.203 6.166-6.203l4.527 0.019v5.071h-3.285c-0.539 0-1.296 0.271-1.296 1.424v3.075h4.567l-0.534 5.219z"></path>
</symbol>
<symbol id="icon-telegram" viewBox="0 0 44 32">
<path d="M17.343 21.048l-0.675 8.86c0.966 0 1.384-0.387 1.885-0.852l4.527-4.038 9.381 6.412c1.72 0.895 2.933 0.424 3.397-1.477l6.157-26.929 0.002-0.002c0.546-2.374-0.92-3.302-2.596-2.72l-36.194 12.933c-2.47 0.895-2.433 2.18-0.42 2.762l9.253 2.686 21.494-12.552c1.011-0.625 1.931-0.279 1.175 0.346l-17.386 14.57z"></path>
</symbol>
<symbol id="icon-github" viewBox="0 0 32 32">
<path d="M16 0c-8.788 0-16 7.212-16 16 0 7.499 5.262 14.312 12.25 16v-5.293c-0.692 0.152-1.33 0.156-2.034-0.052-0.946-0.279-1.714-0.909-2.284-1.869-0.364-0.613-1.008-1.278-1.68-1.23l-0.165-1.868c1.453-0.124 2.711 0.886 3.457 2.14 0.332 0.558 0.713 0.884 1.203 1.029 0.473 0.14 0.982 0.072 1.574-0.137 0.149-1.186 0.692-1.63 1.102-2.255v-0.001c-4.167-0.622-5.828-2.832-6.488-4.578-0.874-2.317-0.405-5.212 1.14-7.041 0.030-0.036 0.084-0.129 0.063-0.194-0.708-2.139 0.155-3.909 0.187-4.097 0.817 0.242 0.95-0.243 3.551 1.337l0.449 0.27c0.188 0.112 0.129 0.048 0.317 0.034 1.086-0.295 2.23-0.458 3.358-0.472 1.136 0.015 2.273 0.178 3.404 0.484l0.145 0.015c-0.013-0.002 0.040-0.009 0.127-0.062 3.248-1.968 3.132-1.324 4.003-1.608 0.032 0.188 0.883 1.987 0.182 4.099-0.095 0.291 2.816 2.956 1.203 7.235-0.659 1.746-2.32 3.957-6.487 4.578v0.001c0.534 0.814 1.176 1.247 1.173 2.927v6.608c6.988-1.688 12.25-8.501 12.25-16 0-8.788-7.212-16-16-16v0z"></path>
</symbol>
<symbol id="icon-close" viewBox="0 0 32 32">
<path d="M17.768 16l13.866-13.866c0.488-0.488 0.488-1.28 0-1.768s-1.28-0.488-1.768 0l-13.866 13.866-13.866-13.866c-0.488-0.488-1.28-0.488-1.768 0s-0.488 1.28 0 1.768l13.866 13.866-13.866 13.866c-0.488 0.488-0.488 1.28 0 1.768 0.244 0.244 0.564 0.366 0.884 0.366s0.64-0.122 0.884-0.366l13.866-13.866 13.866 13.866c0.244 0.244 0.564 0.366 0.884 0.366s0.64-0.122 0.884-0.366c0.488-0.488 0.488-1.28 0-1.768l-13.866-13.866z"></path>
</symbol>
<symbol id="icon-burgher" viewBox="0 0 32 32">
<path d="M30.75 14.75h-29.5c-0.69 0-1.25 0.56-1.25 1.25s0.56 1.25 1.25 1.25h29.5c0.69 0 1.25-0.56 1.25-1.25s-0.56-1.25-1.25-1.25z"></path>
<path d="M30.75 4.75h-29.5c-0.69 0-1.25 0.56-1.25 1.25s0.56 1.25 1.25 1.25h29.5c0.69 0 1.25-0.56 1.25-1.25s-0.56-1.25-1.25-1.25z"></path>
<path d="M30.75 24.75h-29.5c-0.69 0-1.25 0.56-1.25 1.25s0.56 1.25 1.25 1.25h29.5c0.69 0 1.25-0.56 1.25-1.25s-0.56-1.25-1.25-1.25z"></path>
</symbol>
<symbol id="icon-arrow-button" viewBox="0 0 32 32">
<path d="M24.889 14.751l-14.24-14.24c-0.329-0.33-0.769-0.511-1.238-0.511s-0.908 0.182-1.238 0.511l-1.049 1.048c-0.682 0.683-0.682 1.794 0 2.476l11.958 11.958-11.971 11.971c-0.329 0.33-0.511 0.769-0.511 1.238s0.182 0.908 0.511 1.238l1.049 1.048c0.33 0.33 0.769 0.511 1.238 0.511s0.908-0.182 1.238-0.511l14.254-14.253c0.33-0.331 0.511-0.772 0.51-1.242 0.001-0.471-0.18-0.912-0.51-1.243z"></path>
</symbol>
<symbol id="icon-home" viewBox="0 0 35 32">
<path d="M34.253 15.613c0.599-0.659 0.541-1.669-0.129-2.255l-14.772-12.926c-0.671-0.586-1.745-0.574-2.402 0.028l-14.822 13.587c-0.656 0.602-0.689 1.611-0.071 2.252l0.372 0.387c0.617 0.642 1.613 0.718 2.224 0.17l1.108-0.992v14.523c0 0.891 0.722 1.613 1.612 1.613h5.778c0.89 0 1.612-0.721 1.612-1.613v-10.16h7.37v10.16c-0.013 0.89 0.624 1.612 1.515 1.612h6.123c0.89 0 1.613-0.722 1.613-1.613v-14.318c0 0 0.306 0.268 0.683 0.6s1.168 0.066 1.767-0.594l0.42-0.462z"></path>
</symbol>
<symbol id="icon-red-dots" viewBox="0 0 256 32">
<path d="M144 16c0 8.837-7.163 16-16 16s-16-7.163-16-16c0-8.837 7.163-16 16-16s16 7.163 16 16z"></path>
<path d="M32 16c0 8.837-7.163 16-16 16s-16-7.163-16-16c0-8.837 7.163-16 16-16s16 7.163 16 16z"></path>
<path d="M256 16c0 8.837-7.163 16-16 16s-16-7.163-16-16c0-8.837 7.163-16 16-16s16 7.163 16 16z"></path>
</symbol>
<symbol id="icon-white-dots" viewBox="0 0 139 32">
<path d="M85.333 16c0 8.837-7.163 16-16 16s-16-7.163-16-16c0-8.837 7.163-16 16-16s16 7.163 16 16z"></path>
<path d="M32 16c0 8.837-7.163 16-16 16s-16-7.163-16-16c0-8.837 7.163-16 16-16s16 7.163 16 16z"></path>
<path d="M138.667 16c0 8.837-7.163 16-16 16s-16-7.163-16-16c0-8.837 7.163-16 16-16s16 7.163 16 16z"></path>
</symbol>
<symbol id="icon-grey-dot" viewBox="0 0 32 32">
<path d="M32 16c0 8.837-7.163 16-16 16s-16-7.163-16-16c0-8.837 7.163-16 16-16s16 7.163 16 16z"></path>
</symbol>
<symbol id="icon-border" viewBox="0 0 2864 32">
<path stroke-linejoin="miter" stroke-linecap="butt" stroke-miterlimit="4" stroke-width="16" d="M0 16h2864"></path>
</symbol>

<symbol id="icon-milk-box" viewBox="0 0 32 32">
<path fill="#fff" style="fill: var(--color1, #fff)" d="M11.854 8.399v-4.035h-5.82v4.040c0 0.838-0.271 1.653-0.773 2.324l-1.356 1.813c-0.502 0.671-0.773 1.486-0.773 2.324v13.901c0 0.714 0.579 1.293 1.293 1.293h9.053c0.714 0 1.293-0.579 1.293-1.293v-13.896c0-0.841-0.273-1.66-0.779-2.332l-1.36-1.808c-0.506-0.672-0.779-1.491-0.779-2.332z"></path>
<path fill="#b6e6fa" style="fill: var(--color2, #b6e6fa)" d="M13.992 12.539l-1.36-1.808c-0.506-0.672-0.779-1.491-0.779-2.332v-4.035h-1.293v4.035c0 0.841 0.273 1.66 0.779 2.332l1.36 1.808c0.506 0.672 0.779 1.491 0.779 2.332v13.896c0 0.714-0.579 1.293-1.293 1.293h1.293c0.714 0 1.293-0.579 1.293-1.293v-13.896c0-0.841-0.273-1.66-0.779-2.332z"></path>
<path fill="#fff" style="fill: var(--color1, #fff)" d="M25.942 8.399v-4.035h-5.82v4.040c0 0.838-0.271 1.653-0.773 2.324l-1.356 1.813c-0.502 0.671-0.773 1.486-0.773 2.324v13.901c0 0.714 0.579 1.293 1.293 1.293h9.053c0.714 0 1.293-0.579 1.293-1.293v-13.896c0-0.841-0.273-1.66-0.779-2.332l-1.36-1.808c-0.506-0.672-0.779-1.491-0.779-2.332z"></path>
<path fill="#b6e6fa" style="fill: var(--color2, #b6e6fa)" d="M28.081 12.539l-1.36-1.808c-0.506-0.672-0.779-1.491-0.779-2.332v-4.035h-1.293v4.035c0 0.841 0.273 1.66 0.779 2.332l1.36 1.808c0.506 0.672 0.779 1.491 0.779 2.332v13.896c0 0.714-0.579 1.293-1.293 1.293h1.293c0.714 0 1.293-0.579 1.293-1.293v-13.896c0-0.841-0.273-1.66-0.779-2.332z"></path>
<path fill="#b6e6fa" style="fill: var(--color2, #b6e6fa)" d="M12.832 4.365h-7.76v-1.782c0-0.357 0.29-0.647 0.647-0.647h6.466c0.357 0 0.647 0.29 0.647 0.647z"></path>
<path fill="#54c9f3" style="fill: var(--color3, #54c9f3)" d="M12.185 1.936h-1.293c0.357 0 0.647 0.29 0.647 0.647v1.782h1.293v-1.782c0-0.357-0.29-0.647-0.647-0.647z"></path>
<path fill="#b6e6fa" style="fill: var(--color2, #b6e6fa)" d="M26.92 4.365h-7.76v-1.782c0-0.357 0.29-0.647 0.647-0.647h6.466c0.357 0 0.647 0.29 0.647 0.647z"></path>
<path fill="#54c9f3" style="fill: var(--color3, #54c9f3)" d="M26.273 1.936h-1.293c0.357 0 0.647 0.29 0.647 0.647v1.782h1.293v-1.782c0-0.357-0.29-0.647-0.647-0.647z"></path>
<path fill="#dfba7f" style="fill: var(--color4, #dfba7f)" d="M0.485 16.485h31.030v5.496h-31.030z"></path>
<path fill="#f69500" style="fill: var(--color5, #f69500)" d="M30.222 16.485v4.203h-29.737v1.293h31.030v-5.496z"></path>
<path fill="#dfba7f" style="fill: var(--color4, #dfba7f)" d="M0.485 24.568h31.030v5.496h-31.030z"></path>
<path fill="#f69500" style="fill: var(--color5, #f69500)" d="M30.222 24.568v4.203h-29.737v1.293h31.030v-5.496z"></path>
<path fill="#000" style="fill: var(--color6, #000)" d="M32 22.466v-6.466h-2.655v-1.129c0-0.94-0.311-1.872-0.876-2.623l-1.36-1.808c-0.44-0.585-0.682-1.309-0.682-2.040v-3.55h0.978v-2.267c0-0.624-0.508-1.132-1.132-1.132h-6.466c-0.624 0-1.132 0.508-1.132 1.132v2.267h0.962v3.555c0 0.728-0.24 1.45-0.676 2.033l-1.356 1.813c-0.561 0.75-0.869 1.678-0.869 2.614v1.134h-1.479v-1.129c0-0.94-0.311-1.872-0.876-2.623l-1.36-1.808c-0.44-0.585-0.682-1.309-0.682-2.040v-3.55h0.978v-2.267c0-0.624-0.508-1.132-1.132-1.132h-3.916v0.97h3.916c0.089 0 0.162 0.073 0.162 0.162v1.297h-6.79v-1.297c0-0.089 0.072-0.162 0.162-0.162h1.58v-0.97h-1.58c-0.624 0-1.132 0.508-1.132 1.132v2.267h0.962v3.555c0 0.728-0.24 1.45-0.676 2.033l-1.356 1.813c-0.561 0.75-0.869 1.678-0.869 2.614v1.134h-2.647v6.466h2.647v1.617h-2.647v6.466h32v-6.466h-2.655v-1.617zM19.645 2.583c0-0.089 0.073-0.162 0.162-0.162h6.466c0.089 0 0.162 0.073 0.162 0.162v1.297h-6.79zM25.457 4.85v1.455h-4.85v-1.455zM6.519 4.85h4.85v1.455h-4.85zM3.617 14.866c0-0.728 0.24-1.45 0.676-2.033l1.356-1.813c0.561-0.75 0.869-1.678 0.869-2.614v-1.13h4.85v1.125c0 0.94 0.311 1.872 0.876 2.623l1.36 1.808c0.44 0.585 0.682 1.309 0.682 2.040v1.129h-10.669zM31.030 25.053v4.526h-30.060v-4.526h10.184v-0.97h-7.537v-1.617h10.669v1.617h-2.17v0.97zM15.256 24.083v-1.617h1.479v1.617zM17.706 24.083v-1.617h10.669v1.617zM0.97 21.496v-4.526h20.846v-0.97h-4.11v-1.134c0-0.728 0.24-1.45 0.676-2.033l1.356-1.813c0.561-0.75 0.869-1.678 0.869-2.614v-1.13h4.85v1.125c0 0.94 0.311 1.872 0.876 2.623l1.36 1.808c0.44 0.585 0.682 1.309 0.682 2.040v1.129h-5.589v0.97h8.245v4.526z"></path>
<path fill="#000" style="fill: var(--color6, #000)" d="M2.891 18.888h0.948v0.97h-0.948z"></path>
<path fill="#000" style="fill: var(--color6, #000)" d="M2.891 26.669h0.948v0.97h-0.948z"></path>
<path fill="#000" style="fill: var(--color6, #000)" d="M28.174 18.888h0.948v0.97h-0.948z"></path>
<path fill="#000" style="fill: var(--color6, #000)" d="M28.174 26.669h0.948v0.97h-0.948z"></path>
<path fill="#fff" style="fill: var(--color1, #fff)" d="M23.842 28.609h-0.97v-0.97h0.97zM21.902 28.609h-0.97v-0.97h0.97zM19.962 28.609h-0.97v-0.97h0.97z"></path>
</symbol>
</defs>
</svg>